<?xml version="1.0" encoding="iso-8859-1"?>
<!-- Generator: Adobe Illustrator 19.0.0, SVG Export Plug-In . SVG Version: 6.00 Build 0)  -->
<svg version="1.1" id="Layer_1" xmlns="http://www.w3.org/2000/svg" xmlns:xlink="http://www.w3.org/1999/xlink" x="0px" y="0px"
	 viewBox="0 0 481.882 481.882" style="enable-background:new 0 0 481.882 481.882;" xml:space="preserve">
<path style="fill:#FDD835;" d="M253.662,240.941l215.499-107.753C429.602,54.234,347.983,0,253.662,0
	C120.595,0,12.721,107.874,12.721,240.941s107.874,240.941,240.941,240.941c94.321,0,175.94-54.234,215.499-133.188L253.662,240.941
	z"/>
<path style="fill:#FFEE58;" d="M253.662,0C120.595,0,12.721,107.874,12.721,240.941c0,33.032,6.664,64.497,18.688,93.161
	L346.718,18.793C318.076,6.761,286.679,0,253.662,0z"/>
<circle style="fill:#FFFFFF;" cx="258.338" cy="100.397" r="52.706"/>
<path style="fill:#212121;" d="M264.693,71.13c-5.496,0-10.601,1.641-14.953,4.352c4.224,2.462,7.198,6.852,7.198,12.1
	c0,7.846-6.37,14.216-14.216,14.216c-2.342,0-4.457-0.7-6.408-1.702C236.6,115.554,249.175,128,264.693,128
	c15.706,0,28.431-12.725,28.431-28.424C293.124,83.87,280.399,71.13,264.693,71.13z"/>
<g>
</g>
<g>
</g>
<g>
</g>
<g>
</g>
<g>
</g>
<g>
</g>
<g>
</g>
<g>
</g>
<g>
</g>
<g>
</g>
<g>
</g>
<g>
</g>
<g>
</g>
<g>
</g>
<g>
</g>
</svg>
